<svg width="18" height="20" viewBox="0 0 18 20" fill="none" xmlns="http://www.w3.org/2000/svg">
<path d="M16.6 4.467L14.9 2.2C14.333 1.445 13.444 1 12.5 1H5.5C4.556 1 3.667 1.445 3.1 2.2L1.4 4.467C1.14 4.813 1 5.234 1 5.667V16C1 17.657 2.343 19 4 19H14C15.657 19 17 17.657 17 16V5.667C17 5.234 16.86 4.813 16.6 4.467Z" stroke="#FAFAFA" stroke-width="2" stroke-linecap="round" stroke-linejoin="round"/>
<path d="M12 8C12 9.657 10.657 11 9 11C7.343 11 6 9.657 6 8" stroke="#FAFAFA" stroke-width="2" stroke-linecap="round" stroke-linejoin="round"/>
<path d="M16.88 5H1.12" stroke="#FAFAFA" stroke-width="2" stroke-linecap="round" stroke-linejoin="round"/>
</svg>
