<svg width="24" height="24" viewBox="0 0 24 24" fill="none" xmlns="http://www.w3.org/2000/svg">
<path d="M12 21C16.9706 21 21 16.9706 21 12C21 7.02944 16.9706 3 12 3C7.02944 3 3 7.02944 3 12C3 16.9706 7.02944 21 12 21Z" stroke="#FAFAFA" stroke-width="2" stroke-linecap="round" stroke-linejoin="round"/>
<path d="M16 16C15.8837 15.7074 15.7033 15.4446 15.472 15.231C15.0823 14.8688 14.57 14.6673 14.038 14.667H9.963C9.43066 14.6673 8.91811 14.8688 8.528 15.231C8.29724 15.4451 8.1169 15.7077 8 16" stroke="#FAFAFA" stroke-width="2" stroke-linecap="round" stroke-linejoin="round"/>
<path d="M12 12.5C13.2426 12.5 14.25 11.4926 14.25 10.25C14.25 9.00736 13.2426 8 12 8C10.7574 8 9.75 9.00736 9.75 10.25C9.75 11.4926 10.7574 12.5 12 12.5Z" stroke="#FAFAFA" stroke-width="2" stroke-linecap="round" stroke-linejoin="round"/>
</svg>
