<svg width="120" height="39" viewBox="0 0 120 39" fill="none" xmlns="http://www.w3.org/2000/svg">
<g clip-path="url(#clip0)">
<path d="M4.03729 17.875V13.0001C4.48301 13.0001 4.84478 12.636 4.84478 12.1875C4.84478 11.739 4.48301 11.375 4.03729 11.375C1.81036 11.375 0 13.1982 0 15.4375V17.0625C0 18.4064 1.08682 19.5 2.4224 19.5H4.03729C4.48301 19.5 4.84478 19.1361 4.84478 18.6876C4.84478 18.2391 4.48301 17.875 4.03729 17.875Z" fill="white"/>
<path d="M34.721 11.375C34.2753 11.375 33.9136 11.739 33.9136 12.1875C33.9136 12.636 34.2753 13.0001 34.721 13.0001V17.875C34.2753 17.875 33.9136 18.2391 33.9136 18.6876C33.9136 19.1361 34.2753 19.5 34.721 19.5H36.3359C37.6715 19.5 38.7583 18.4064 38.7583 17.0625V15.4375C38.7583 13.1982 36.9481 11.375 34.721 11.375Z" fill="white"/>
<path d="M13.727 34.125C13.2812 34.125 12.9195 34.4891 12.9195 34.9376H8.07471C8.07471 34.4891 7.71293 34.125 7.26722 34.125C6.82149 34.125 6.45972 34.4891 6.45972 34.9376V36.5625C6.45972 37.9065 7.54655 39 8.88212 39H12.1121C13.4477 39 14.5345 37.9065 14.5345 36.5625V34.9376C14.5345 34.4891 14.1727 34.125 13.727 34.125Z" fill="white"/>
<path d="M31.4911 34.125C31.0454 34.125 30.6837 34.4891 30.6837 34.9376H25.8388C25.8388 34.4891 25.477 34.125 25.0313 34.125C24.5856 34.125 24.2239 34.4891 24.2239 34.9376V36.5625C24.2239 37.9065 25.3108 39 26.6464 39H29.8762C31.2118 39 32.2986 37.9065 32.2986 36.5625V34.9376C32.2986 34.4891 31.9369 34.125 31.4911 34.125Z" fill="white"/>
<path d="M3.25513 3.19921C3.25513 1.43234 4.67858 0 6.43451 0H32.3238C34.0798 0 35.5032 1.43234 35.5032 3.19921V32.5254C35.5032 34.2922 34.0798 35.7246 32.3238 35.7246H6.43451C4.67858 35.7246 3.25513 34.2922 3.25513 32.5254V3.19921Z" fill="white"/>
<path d="M3.25513 3.19921V32.5254C3.25513 34.2922 4.67858 35.7246 6.43451 35.7246H19.3791V0H6.43451C4.67858 0 3.25513 1.43234 3.25513 3.19921Z" fill="white"/>
<path d="M19.3792 30.8496C26.5284 30.8496 32.3239 25.0179 32.3239 17.8242C32.3239 10.6305 26.5284 4.79883 19.3792 4.79883C12.2301 4.79883 6.43457 10.6305 6.43457 17.8242C6.43457 25.0179 12.2301 30.8496 19.3792 30.8496Z" fill="white"/>
<path d="M19.3792 4.79883C12.2301 4.79883 6.43457 10.6305 6.43457 17.8242H32.3239C32.3239 10.6305 26.5284 4.79883 19.3792 4.79883Z" fill="white"/>
<path d="M52.3912 0.858887L54.9528 3.43547L49.4883 9.10397C51.3667 12.5394 52.5621 14.2571 53.0743 14.4289C53.5867 14.6007 54.2697 14.2571 54.9528 13.5701L56.3189 17.0055C55.4651 18.0361 54.6113 18.5514 53.7574 18.5514C52.9036 18.5514 52.0498 18.5514 51.3667 18.2079C50.6836 17.8643 48.8052 15.8031 46.5853 11.5088L45.9022 12.3676V18.3798H42.3162V1.20243H45.9022V7.38625L52.3912 0.858887Z" fill="#BB1111"/>
<path d="M61.6127 1.37378V3.0915L62.6374 1.37378H70.834C71.8587 1.71732 72.3709 3.0915 72.2001 5.66808V17.0051C72.0294 17.864 71.1756 18.3793 69.8093 18.3793H60.2465C58.8805 18.3793 58.0267 17.864 57.856 16.4898V2.06087L61.6127 1.37378ZM61.6127 4.98101V14.6003H68.614V4.98101H61.6127Z" fill="#BB1111"/>
<path d="M74.9322 1.37378H85.6905C86.3733 1.54555 87.0561 1.88909 87.2273 2.91973V7.90112C87.0561 9.10358 86.7147 9.79064 86.2031 10.306C85.6905 10.8213 85.0069 11.1648 83.8117 11.6802L84.8367 13.2261C85.5195 14.4285 86.5445 15.1156 87.91 15.2874L87.5687 19.238L85.5195 18.8946C84.1539 18.5511 82.7874 17.1769 81.421 14.7721L80.5672 13.2261L78.6891 14.0849V18.5511H75.1029V15.1156L73.7368 12.1955L75.1029 11.3366V6.01164L76.8109 4.98101H74.0784L74.9322 1.37378ZM78.6891 5.15278V9.96241L82.446 8.41643C83.3 8.07289 83.8117 7.5576 83.8117 6.8705V5.15278H78.6891Z" fill="#BB1111"/>
<path d="M89.9592 1.37378H102.084L101.059 5.15278H94.9114V7.04228H101.572L100.889 10.4777H94.7412C94.57 12.3672 94.7412 13.5696 95.0826 14.0849C95.424 14.6003 95.9364 14.9438 96.7903 14.9438H101.4L100.718 18.5511C96.9607 18.7227 94.9114 18.5511 94.399 18.2075C93.8872 17.864 93.2037 17.3487 92.5209 16.6614C91.8381 15.9745 91.4967 14.9438 91.3255 13.3978V10.4777H89.2764L89.7889 7.04228H91.4967V4.98101H89.2764L89.9592 1.37378Z" fill="#BB1111"/>
<path d="M110.281 0L113.354 1.20241L113.013 2.40481H117.965L117.453 6.1838H114.721L118.989 17.6926L115.745 18.895L111.305 7.04268L106.353 18.7232L102.938 17.6926L107.719 6.01203H104.133L104.475 2.40481H109.085L110.281 0ZM111.988 12.8829L113.867 14.9442L110.281 18.5514L108.402 16.4901L111.988 12.8829Z" fill="#BB1111"/>
<path d="M42.8284 21.4792H50.6836C52.3912 21.6509 53.4159 21.9945 53.7574 22.6816C54.099 23.3688 54.2697 24.0557 54.2697 24.9146C54.2697 25.7735 53.5867 26.8041 52.5621 28.0065C54.2697 28.0065 55.2943 28.5218 55.465 29.896V35.3929C55.2943 36.4235 55.1235 37.1106 54.4405 37.6259C53.7574 38.1412 53.2452 38.4848 52.3912 38.6564C50.5129 39.1717 48.6345 38.8283 46.756 38.1412L47.9514 35.0493C49.6591 35.5645 50.8545 35.7364 51.196 35.3929C51.5374 35.0493 51.879 33.675 51.7083 31.0984H46.9269V34.1903C46.4146 37.4541 45.0484 38.8283 42.3162 38.4848V35.3929C43.17 35.3929 43.3408 34.7056 43.3408 33.3316V31.0984H42.3162V27.8349H43.6824V25.0864H42.3162L42.8284 21.4792ZM46.9269 25.0864V27.8349L48.4636 27.4912C49.6591 26.8041 50.1714 26.117 50.0007 25.0864H46.9269Z" fill="#355396"/>
<path d="M61.271 21.4792C60.9296 25.7735 60.7588 28.6936 61.1003 30.2397C61.4419 31.7855 61.9541 32.9879 62.8081 33.8469C63.6619 34.7056 65.3695 34.8774 67.9309 34.534V21.6509L71.517 21.8227V38.313L67.9309 38.6564V36.5951L67.2479 38.8283L66.5648 39.0001C64.1741 39.0001 62.4665 38.6564 61.271 37.9693C60.0758 37.2822 59.0512 35.9082 58.1974 33.675C57.3434 31.4421 57.1727 28.5218 57.3434 24.3993L57.5143 21.9945L61.271 21.4792Z" fill="#355396"/>
<path d="M74.2491 21.4792H83.4703C84.4953 21.6509 85.1781 22.3382 85.3491 23.1969C85.5195 24.0557 85.8609 24.9146 85.8609 25.6017L82.6164 26.2888C82.6164 25.4301 81.9336 25.0864 80.3968 25.2583H77.8351L85.6905 32.9879C86.203 33.675 86.3733 35.0492 85.8609 36.7669C85.3491 37.9693 84.3241 38.4848 82.6164 38.6564H76.2985C75.6151 38.4848 74.9322 37.9693 74.5906 37.2822C74.2491 36.5951 73.9075 35.5645 73.7368 34.534L77.1523 33.3316C77.3227 34.3621 77.6641 34.7056 78.3477 34.7056H81.7624C82.275 34.534 82.275 34.1903 81.5922 33.675L74.2491 26.4607L76.1274 25.0864H73.9075L74.2491 21.4792Z" fill="#355396"/>
<path d="M26.952 6.57307C20.7476 2.42095 12.3677 4.11853 8.23419 10.3358C6.16087 13.4391 7.00366 17.6559 10.1056 19.7319C13.2053 21.808 17.3924 20.9649 19.4605 17.8507C21.5286 14.7366 25.7186 13.904 28.8181 15.9692C31.9228 18.0453 32.7578 22.262 30.6868 25.3653C34.823 19.1377 33.151 10.7253 26.952 6.57307Z" fill="#BB1111"/>
<path d="M8.23419 10.3358C6.16087 13.4391 7.00366 17.6558 10.1056 19.7318C13.2053 21.8079 17.3924 20.9648 19.4605 17.8506C21.5286 14.7367 25.7186 13.904 28.8181 15.9691C31.9228 18.0452 32.7578 22.2619 30.6867 25.3652C26.556 31.604 18.1787 33.2802 11.9744 29.1281C5.77573 24.9764 4.0981 16.5641 8.23419 10.3358Z" fill="#355396"/>
<path d="M7.83468 28.0624L10.3075 31.7274C10.3894 31.8488 10.3563 32.0128 10.2335 32.0939L9.98585 32.2574C9.86301 32.3385 9.69698 32.3056 9.61496 32.1842L7.14216 28.5192C7.0602 28.3979 7.09333 28.2338 7.21619 28.1529L7.46386 27.9894C7.58663 27.9083 7.75273 27.941 7.83468 28.0624Z" fill="#00174A"/>
<path d="M6.84244 28.6702L7.77721 30.1417C7.856 30.2658 7.82422 30.4331 7.70623 30.516L7.4691 30.6826C7.35088 30.7657 7.19084 30.7324 7.11182 30.6082L6.17594 29.1371C6.09699 29.0129 6.12882 28.8452 6.2471 28.7623L6.4854 28.5952C6.60361 28.5125 6.76353 28.5459 6.84244 28.6702Z" fill="#00174A"/>
<path d="M8.28899 30.9698L9.2241 32.4423C9.30276 32.566 9.27089 32.7332 9.15288 32.8158L8.91522 32.9824C8.79699 33.0654 8.63713 33.0319 8.55822 32.9078L7.62254 31.4356C7.54382 31.3117 7.57569 31.1444 7.69376 31.0618L7.93199 30.895C8.05029 30.8121 8.21014 30.8456 8.28899 30.9698Z" fill="#00174A"/>
<path d="M5.78602 29.3972L8.25794 33.1642C8.33981 33.2889 8.30666 33.4573 8.1841 33.5407L7.93707 33.7085C7.81419 33.7919 7.648 33.7583 7.56595 33.6334L5.09258 29.8669C5.01059 29.742 5.04386 29.5734 5.16673 29.4901L5.41527 29.3219C5.53803 29.2387 5.70409 29.2723 5.78602 29.3972Z" fill="#00174A"/>
<path d="M28.6462 31.7147L29.582 30.2435C29.6611 30.1192 29.8211 30.0859 29.9393 30.169L30.1766 30.3356C30.2945 30.4185 30.3261 30.586 30.2474 30.7099L29.3127 32.1815C29.2337 32.3057 29.0737 32.3392 28.9555 32.2563L28.7172 32.0894C28.5991 32.0066 28.5671 31.8388 28.6462 31.7147Z" fill="#00174A"/>
<path d="M30.0956 29.5402L31.0981 28.0653C31.1824 27.9414 31.3534 27.9077 31.4801 27.9903L31.7355 28.1571C31.862 28.2397 31.8961 28.4072 31.8117 28.531L30.8072 30.0038C30.7229 30.1272 30.5525 30.1607 30.4262 30.0787L30.1729 29.9142C30.0459 29.8318 30.0114 29.6643 30.0956 29.5402Z" fill="#00174A"/>
<path d="M29.7311 32.4415L30.6661 30.9696C30.7447 30.8457 30.9044 30.8121 31.0225 30.8949L31.2614 31.0619C31.3795 31.1445 31.4115 31.3117 31.3328 31.4358L30.3984 32.9078C30.3198 33.0317 30.1603 33.0654 30.042 32.9827L29.8025 32.8155C29.6844 32.7329 29.6525 32.5654 29.7311 32.4415Z" fill="#00174A"/>
<path d="M31.1781 30.1414L32.1133 28.6703C32.1922 28.5464 32.3516 28.5131 32.4695 28.5957L32.7083 28.7629C32.8265 28.8458 32.8583 29.0136 32.7794 29.1377L31.8442 30.6088C31.7654 30.7327 31.6061 30.766 31.488 30.6834L31.2492 30.5162C31.1311 30.4333 31.0992 30.2654 31.1781 30.1414Z" fill="#00174A"/>
<path d="M30.6988 33.167L31.7016 31.6954C31.7859 31.5719 31.956 31.5383 32.0823 31.6202L32.3373 31.7854C32.4645 31.8678 32.4991 32.036 32.4145 32.1603L31.4125 33.6337C31.3281 33.7578 31.1571 33.7913 31.0306 33.7087L30.775 33.5416C30.6483 33.4587 30.6142 33.2909 30.6988 33.167Z" fill="#00174A"/>
<path d="M32.2632 30.8704L33.1985 29.3967C33.2775 29.2723 33.4376 29.2389 33.556 29.3218L33.7935 29.4884C33.9116 29.5713 33.9434 29.7388 33.8645 29.8627L32.9283 31.3346C32.8496 31.4583 32.6901 31.4919 32.5719 31.4098L32.3351 31.2452C32.2164 31.1626 32.1843 30.9946 32.2632 30.8704Z" fill="#00174A"/>
<path d="M29.3393 3.3526L30.3092 4.81616C30.3907 4.93912 30.3578 5.10513 30.2354 5.18729L29.9895 5.35264C29.8668 5.43511 29.7007 5.40195 29.6187 5.27856L28.6476 3.81538C28.5659 3.69228 28.599 3.52597 28.7216 3.44381L28.9688 3.27816C29.0915 3.19588 29.2574 3.22927 29.3393 3.3526Z" fill="#00174A"/>
<path d="M30.8359 5.60919L31.809 7.07183C31.8912 7.19534 31.8577 7.36244 31.7342 7.44429L31.4872 7.60818C31.3647 7.68956 31.1996 7.6561 31.1179 7.5335L30.1454 6.07238C30.0635 5.94935 30.0963 5.78291 30.219 5.70062L30.4656 5.53522C30.5881 5.45294 30.7539 5.48603 30.8359 5.60919Z" fill="#00174A"/>
<path d="M30.3779 2.65676L32.8477 6.37745C32.9295 6.50059 32.8963 6.66697 32.7736 6.74907L32.5254 6.91509C32.4027 6.99719 32.2369 6.9639 32.1552 6.84076L29.6845 3.12032C29.6027 2.9971 29.6359 2.8306 29.7587 2.7485L30.0077 2.58218C30.1304 2.50039 30.296 2.5336 30.3779 2.65676Z" fill="#00174A"/>
<path d="M31.4137 1.96217L32.3859 3.42857C32.4677 3.55208 32.4341 3.71883 32.3108 3.80063L32.0636 3.96458C31.9409 4.04594 31.7757 4.01249 31.6942 3.88965L30.7214 2.42518C30.6396 2.30204 30.6728 2.13559 30.7954 2.05344L31.0434 1.88754C31.166 1.80544 31.332 1.83877 31.4137 1.96217Z" fill="#00174A"/>
<path d="M32.9113 4.22342L33.8818 5.6868C33.9635 5.80982 33.9304 5.97597 33.8081 6.05811L33.5615 6.22353C33.4388 6.30587 33.2727 6.27266 33.1909 6.14927L32.2204 4.6859C32.1387 4.56288 32.1717 4.39673 32.2941 4.31457L32.5407 4.14917C32.6635 4.06676 32.8294 4.09991 32.9113 4.22342Z" fill="#00174A"/>
<path d="M7.3202 7.07195L9.78934 3.35223C9.87118 3.22896 10.037 3.19569 10.1598 3.27791L10.407 3.44362C10.5296 3.52578 10.5627 3.69216 10.4809 3.81525L8.01083 7.5329C7.92917 7.65574 7.76398 7.68915 7.64135 7.60765L7.39509 7.444C7.27181 7.36215 7.2383 7.19534 7.3202 7.07195Z" fill="#00174A"/>
<path d="M6.28312 6.37771L8.75267 2.65725C8.83452 2.53399 9.00051 2.50071 9.12324 2.58306L9.36987 2.74858C9.49229 2.83074 9.52532 2.99695 9.44367 3.11997L6.97478 6.8406C6.89294 6.96386 6.72707 6.99721 6.60432 6.91493L6.35704 6.74921C6.23449 6.66711 6.20141 6.50079 6.28312 6.37771Z" fill="#00174A"/>
<path d="M5.24516 5.68645L7.71495 1.96228C7.7968 1.83896 7.96285 1.80562 8.08558 1.88797L8.33221 2.05349C8.45459 2.13565 8.48767 2.30168 8.40613 2.42476L5.93784 6.14946C5.85612 6.27272 5.69019 6.30619 5.56746 6.22403L5.31946 6.05801C5.19671 5.97591 5.16356 5.80959 5.24516 5.68645Z" fill="#00174A"/>
</g>
<defs>
<clipPath id="clip0">
<rect width="119" height="39" fill="white"/>
</clipPath>
</defs>
</svg>
