<svg width="128" height="64" viewBox="0 0 128 64" fill="none" xmlns="http://www.w3.org/2000/svg">
<path d="M48.0373 17.875V13.0001C48.483 13.0001 48.8448 12.636 48.8448 12.1875C48.8448 11.739 48.483 11.375 48.0373 11.375C45.8104 11.375 44 13.1982 44 15.4375V17.0625C44 18.4064 45.0868 19.5 46.4224 19.5H48.0373C48.483 19.5 48.8448 19.1361 48.8448 18.6876C48.8448 18.2391 48.483 17.875 48.0373 17.875Z" fill="white"/>
<path d="M78.721 11.375C78.2753 11.375 77.9136 11.739 77.9136 12.1875C77.9136 12.636 78.2753 13.0001 78.721 13.0001V17.875C78.2753 17.875 77.9136 18.2391 77.9136 18.6876C77.9136 19.1361 78.2753 19.5 78.721 19.5H80.3359C81.6715 19.5 82.7583 18.4064 82.7583 17.0625V15.4375C82.7583 13.1982 80.9481 11.375 78.721 11.375Z" fill="white"/>
<path d="M57.7267 34.125C57.281 34.125 56.9192 34.4891 56.9192 34.9376H52.0745C52.0745 34.4891 51.7127 34.125 51.267 34.125C50.8212 34.125 50.4595 34.4891 50.4595 34.9376V36.5625C50.4595 37.9065 51.5463 39 52.8819 39H56.1118C57.4474 39 58.5342 37.9065 58.5342 36.5625V34.9376C58.5342 34.4891 58.1725 34.125 57.7267 34.125Z" fill="white"/>
<path d="M75.4909 34.125C75.0452 34.125 74.6834 34.4891 74.6834 34.9376H69.8385C69.8385 34.4891 69.4768 34.125 69.0311 34.125C68.5854 34.125 68.2236 34.4891 68.2236 34.9376V36.5625C68.2236 37.9065 69.3105 39 70.6462 39H73.876C75.2116 39 76.2984 37.9065 76.2984 36.5625V34.9376C76.2984 34.4891 75.9366 34.125 75.4909 34.125Z" fill="white"/>
<path d="M47.2549 3.19921C47.2549 1.43234 48.6783 0 50.4343 0H76.3236C78.0795 0 79.5029 1.43234 79.5029 3.19921V32.5254C79.5029 34.2922 78.0795 35.7246 76.3236 35.7246H50.4343C48.6783 35.7246 47.2549 34.2922 47.2549 32.5254V3.19921Z" fill="white"/>
<path d="M47.2549 3.19921V32.5254C47.2549 34.2922 48.6783 35.7246 50.4343 35.7246H63.3789V0H50.4343C48.6783 0 47.2549 1.43234 47.2549 3.19921Z" fill="white"/>
<path d="M63.3792 30.8496C70.5284 30.8496 76.3239 25.0179 76.3239 17.8242C76.3239 10.6305 70.5284 4.79883 63.3792 4.79883C56.2301 4.79883 50.4346 10.6305 50.4346 17.8242C50.4346 25.0179 56.2301 30.8496 63.3792 30.8496Z" fill="white"/>
<path d="M63.3792 4.79883C56.2301 4.79883 50.4346 10.6305 50.4346 17.8242H76.3239C76.3239 10.6305 70.5284 4.79883 63.3792 4.79883Z" fill="white"/>
<path d="M83.8282 44.4792H91.6834C93.391 44.6509 94.4156 44.9945 94.7572 45.6816C95.0988 46.3688 95.2695 47.0557 95.2695 47.9146C95.2695 48.7735 94.5865 49.8041 93.5618 51.0065C95.2695 51.0065 96.2941 51.5218 96.4648 52.896V58.3929C96.2941 59.4235 96.1233 60.1106 95.4403 60.6259C94.7572 61.1412 94.2449 61.4848 93.391 61.6564C91.5127 62.1717 89.6342 61.8283 87.7558 61.1412L88.9511 58.0493C90.6589 58.5645 91.8542 58.7364 92.1958 58.3929C92.5372 58.0493 92.8787 56.675 92.708 54.0984H87.9266V57.1903C87.4144 60.4541 86.0482 61.8283 83.3159 61.4848V58.3929C84.1697 58.3929 84.3406 57.7056 84.3406 56.3316V54.0984H83.3159V50.8349H84.6821V48.0864H83.3159L83.8282 44.4792ZM87.9266 48.0864V50.8349L89.4634 50.4912C90.6589 49.8041 91.1711 49.117 91.0004 48.0864H87.9266Z" fill="#355396"/>
<path d="M102.271 44.4792C101.929 48.7735 101.759 51.6936 102.1 53.2397C102.442 54.7855 102.954 55.9879 103.808 56.8469C104.662 57.7056 106.369 57.8774 108.931 57.534V44.6509L112.517 44.8227V61.313L108.931 61.6564V59.5951L108.248 61.8283L107.565 62.0001C105.174 62.0001 103.466 61.6564 102.271 60.9693C101.076 60.2822 100.051 58.9082 99.1971 56.675C98.3432 54.4421 98.1725 51.5218 98.3432 47.3993L98.514 44.9945L102.271 44.4792Z" fill="#355396"/>
<path d="M115.249 44.4792H124.47C125.495 44.6509 126.178 45.3382 126.349 46.1969C126.519 47.0557 126.861 47.9146 126.861 48.6017L123.616 49.2888C123.616 48.4301 122.934 48.0864 121.397 48.2583H118.835L126.69 55.9879C127.203 56.675 127.373 58.0492 126.861 59.7669C126.349 60.9693 125.324 61.4848 123.616 61.6564H117.299C116.615 61.4848 115.932 60.9693 115.591 60.2822C115.249 59.5951 114.908 58.5645 114.737 57.534L118.152 56.3316C118.323 57.3621 118.664 57.7056 119.348 57.7056H122.762C123.275 57.534 123.275 57.1903 122.592 56.675L115.249 49.4607L117.127 48.0864H114.908L115.249 44.4792Z" fill="#355396"/>
<path d="M70.952 6.57307C64.7476 2.42095 56.3677 4.11853 52.2342 10.3358C50.1609 13.4391 51.0037 17.6559 54.1056 19.7319C57.2053 21.808 61.3924 20.9649 63.4605 17.8507C65.5286 14.7366 69.7186 13.904 72.8181 15.9692C75.9228 18.0453 76.7578 22.262 74.6868 25.3653C78.823 19.1377 77.151 10.7253 70.952 6.57307Z" fill="#BB1111"/>
<path d="M52.2342 10.3359C50.1609 13.4392 51.0037 17.6559 54.1056 19.732C57.2053 21.808 61.3924 20.9649 63.4605 17.8507C65.5286 14.7368 69.7186 13.9041 72.8181 15.9692C75.9228 18.0453 76.7578 22.262 74.6867 25.3653C70.556 31.6041 62.1787 33.2803 55.9744 29.1282C49.7757 24.9765 48.0981 16.5642 52.2342 10.3359Z" fill="#355396"/>
<path d="M51.8347 28.0624L54.3075 31.7274C54.3894 31.8488 54.3563 32.0128 54.2335 32.0939L53.9858 32.2574C53.863 32.3385 53.697 32.3056 53.615 32.1842L51.1422 28.5192C51.0602 28.3979 51.0933 28.2338 51.2162 28.1529L51.4639 27.9894C51.5866 27.9083 51.7527 27.941 51.8347 28.0624Z" fill="#00174A"/>
<path d="M50.8427 28.6702L51.7775 30.1417C51.8562 30.2658 51.8245 30.4331 51.7065 30.516L51.4693 30.6826C51.3511 30.7657 51.1911 30.7324 51.1121 30.6082L50.1762 29.1371C50.0972 29.0129 50.1291 28.8452 50.2473 28.7623L50.4856 28.5952C50.6039 28.5125 50.7638 28.5459 50.8427 28.6702Z" fill="#00174A"/>
<path d="M52.2892 30.9699L53.2243 32.4424C53.303 32.5662 53.2711 32.7334 53.1531 32.816L52.9155 32.9826C52.7972 33.0655 52.6374 33.032 52.5585 32.9079L51.6228 31.4358C51.5441 31.3119 51.5759 31.1445 51.694 31.0619L51.9322 30.8951C52.0505 30.8122 52.2104 30.8457 52.2892 30.9699Z" fill="#00174A"/>
<path d="M49.7858 29.397L52.2577 33.1641C52.3396 33.2887 52.3064 33.4572 52.1839 33.5406L51.9368 33.7084C51.8139 33.7918 51.6478 33.7581 51.5657 33.6333L49.0923 29.8667C49.0103 29.7419 49.0436 29.5733 49.1665 29.4899L49.415 29.3218C49.5378 29.2386 49.7039 29.2722 49.7858 29.397Z" fill="#00174A"/>
<path d="M72.6465 31.7147L73.5823 30.2435C73.6613 30.1192 73.8213 30.0859 73.9396 30.169L74.1768 30.3356C74.2947 30.4185 74.3264 30.586 74.2476 30.7099L73.3129 32.1815C73.234 32.3057 73.074 32.3392 72.9557 32.2563L72.7174 32.0894C72.5994 32.0066 72.5674 31.8388 72.6465 31.7147Z" fill="#00174A"/>
<path d="M74.0959 29.5402L75.0984 28.0653C75.1826 27.9414 75.3537 27.9077 75.4803 27.9903L75.7357 28.1571C75.8622 28.2397 75.8963 28.4072 75.8119 28.531L74.8074 30.0038C74.7232 30.1272 74.5528 30.1607 74.4264 30.0787L74.1731 29.9142C74.0462 29.8318 74.0116 29.6643 74.0959 29.5402Z" fill="#00174A"/>
<path d="M73.7311 32.4414L74.6661 30.9695C74.7447 30.8456 74.9044 30.812 75.0225 30.8948L75.2614 31.0618C75.3795 31.1444 75.4115 31.3116 75.3328 31.4357L74.3984 32.9077C74.3198 33.0316 74.1603 33.0652 74.042 32.9826L73.8025 32.8154C73.6844 32.7328 73.6525 32.5653 73.7311 32.4414Z" fill="#00174A"/>
<path d="M75.1781 30.1414L76.1133 28.6703C76.1922 28.5464 76.3516 28.5131 76.4695 28.5957L76.7083 28.7629C76.8265 28.8458 76.8583 29.0136 76.7794 29.1377L75.8442 30.6088C75.7654 30.7327 75.6061 30.766 75.488 30.6834L75.2492 30.5162C75.1311 30.4333 75.0992 30.2654 75.1781 30.1414Z" fill="#00174A"/>
<path d="M74.6988 33.167L75.7016 31.6954C75.7859 31.5719 75.956 31.5383 76.0823 31.6202L76.3373 31.7854C76.4645 31.8678 76.4991 32.036 76.4145 32.1603L75.4125 33.6337C75.3281 33.7578 75.1571 33.7913 75.0306 33.7087L74.775 33.5416C74.6483 33.4587 74.6142 33.2909 74.6988 33.167Z" fill="#00174A"/>
<path d="M76.263 30.8705L77.1983 29.3968C77.2772 29.2725 77.4374 29.239 77.5557 29.3219L77.7933 29.4885C77.9114 29.5714 77.9432 29.7389 77.8642 29.8628L76.928 31.3347C76.8494 31.4584 76.6899 31.4921 76.5716 31.4099L76.3349 31.2453C76.2162 31.1627 76.184 30.9947 76.263 30.8705Z" fill="#00174A"/>
<path d="M73.3395 3.35248L74.3094 4.81604C74.3909 4.939 74.3581 5.10501 74.2357 5.18717L73.9897 5.35252C73.8671 5.43499 73.701 5.40182 73.619 5.27844L72.6478 3.81526C72.5662 3.69216 72.5992 3.52584 72.7219 3.44368L72.9691 3.27804C73.0917 3.19576 73.2577 3.22915 73.3395 3.35248Z" fill="#00174A"/>
<path d="M74.8356 5.60919L75.8088 7.07183C75.8909 7.19534 75.8574 7.36244 75.734 7.44429L75.4869 7.60818C75.3644 7.68956 75.1994 7.6561 75.1177 7.5335L74.1452 6.07238C74.0632 5.94935 74.0961 5.78291 74.2188 5.70062L74.4653 5.53522C74.5879 5.45294 74.7537 5.48603 74.8356 5.60919Z" fill="#00174A"/>
<path d="M74.3779 2.65676L76.8477 6.37745C76.9295 6.50059 76.8963 6.66697 76.7736 6.74907L76.5254 6.91509C76.4027 6.99719 76.2369 6.9639 76.1552 6.84076L73.6845 3.12032C73.6027 2.9971 73.6359 2.8306 73.7587 2.7485L74.0077 2.58218C74.1304 2.50039 74.296 2.5336 74.3779 2.65676Z" fill="#00174A"/>
<path d="M75.4134 1.96217L76.3856 3.42857C76.4675 3.55208 76.4338 3.71883 76.3105 3.80063L76.0634 3.96458C75.9407 4.04594 75.7755 4.01249 75.694 3.88965L74.7212 2.42518C74.6393 2.30204 74.6725 2.13559 74.7952 2.05344L75.0431 1.88754C75.1658 1.80544 75.3318 1.83877 75.4134 1.96217Z" fill="#00174A"/>
<path d="M76.911 4.22355L77.8815 5.68692C77.9632 5.80994 77.9302 5.97609 77.8078 6.05823L77.5612 6.22365C77.4386 6.30599 77.2725 6.27278 77.1906 6.14939L76.2201 4.68602C76.1384 4.563 76.1715 4.39685 76.2939 4.31469L76.5404 4.14929C76.6632 4.06689 76.8292 4.10004 76.911 4.22355Z" fill="#00174A"/>
<path d="M51.3202 7.07207L53.7893 3.35235C53.8712 3.22909 54.037 3.19581 54.1598 3.27804L54.407 3.44374C54.5296 3.5259 54.5627 3.69228 54.4809 3.81538L52.0108 7.53303C51.9292 7.65586 51.764 7.68927 51.6414 7.60777L51.3951 7.44412C51.2718 7.36227 51.2383 7.19546 51.3202 7.07207Z" fill="#00174A"/>
<path d="M50.2831 6.37771L52.7527 2.65725C52.8345 2.53399 53.0005 2.50071 53.1232 2.58306L53.3699 2.74858C53.4923 2.83074 53.5253 2.99695 53.4437 3.11997L50.9748 6.8406C50.8929 6.96386 50.7271 6.99721 50.6043 6.91493L50.357 6.74921C50.2345 6.66711 50.2014 6.50079 50.2831 6.37771Z" fill="#00174A"/>
<path d="M49.2454 5.68645L51.7152 1.96228C51.797 1.83896 51.9631 1.80562 52.0858 1.88797L52.3325 2.05349C52.4548 2.13565 52.4879 2.30168 52.4064 2.42476L49.9381 6.14946C49.8564 6.27272 49.6904 6.30619 49.5677 6.22403L49.3197 6.05801C49.197 5.97591 49.1638 5.80959 49.2454 5.68645Z" fill="#00174A"/>
<path d="M10.0751 44.8589L12.6366 47.4355L7.17212 53.104C9.05058 56.5394 10.2459 58.2571 10.7582 58.4289C11.2706 58.6007 11.9535 58.2571 12.6366 57.5701L14.0027 61.0055C13.1489 62.0361 12.2951 62.5514 11.4413 62.5514C10.5875 62.5514 9.73368 62.5514 9.05058 62.2079C8.36747 61.8643 6.48902 59.8031 4.26917 55.5088L3.58606 56.3676V62.3798H0V45.2024H3.58606V51.3863L10.0751 44.8589Z" fill="#BB1111"/>
<path d="M19.2963 45.3738V47.0915L20.321 45.3738H28.5176C29.5422 45.7173 30.0545 47.0915 29.8836 49.6681V61.0051C29.7129 61.864 28.8591 62.3793 27.4929 62.3793H17.9301C16.5641 62.3793 15.7103 61.864 15.5396 60.4898V46.0609L19.2963 45.3738ZM19.2963 48.981V58.6003H26.2976V48.981H19.2963Z" fill="#BB1111"/>
<path d="M32.6163 45.3738H43.3746C44.0574 45.5456 44.7402 45.8891 44.9113 46.9197V51.9011C44.7402 53.1036 44.3988 53.7906 43.8871 54.306C43.3746 54.8213 42.691 55.1648 41.4958 55.6802L42.5208 57.2261C43.2036 58.4285 44.2285 59.1156 45.5941 59.2874L45.2527 63.238L43.2036 62.8946C41.838 62.5511 40.4715 61.1769 39.1051 58.7721L38.2513 57.2261L36.3732 58.0849V62.5511H32.787V59.1156L31.4209 56.1955L32.787 55.3366V50.0116L34.495 48.981H31.7625L32.6163 45.3738ZM36.3732 49.1528V53.9624L40.1301 52.4164C40.984 52.0729 41.4958 51.5576 41.4958 50.8705V49.1528H36.3732Z" fill="#BB1111"/>
<path d="M47.6433 45.3738H59.7681L58.7431 49.1528H52.5955V51.0423H59.2557L58.5729 54.4777H52.4253C52.2541 56.3672 52.4253 57.5696 52.7667 58.0849C53.1081 58.6003 53.6205 58.9438 54.4744 58.9438H59.0845L58.4017 62.5511C54.6448 62.7227 52.5955 62.5511 52.0831 62.2075C51.5713 61.864 50.8878 61.3487 50.205 60.6614C49.5222 59.9745 49.1808 58.9438 49.0096 57.3978V54.4777H46.9604L47.473 51.0423H49.1808V48.981H46.9604L47.6433 45.3738Z" fill="#BB1111"/>
<path d="M67.9649 44L71.0384 45.2024L70.697 46.4048H75.6493L75.1367 50.1838H72.4048L76.6735 61.6926L73.429 62.895L68.9891 51.0427L64.0368 62.7232L60.6221 61.6926L65.4032 50.012H61.8173L62.1587 46.4048H66.7689L67.9649 44ZM69.6719 56.8829L71.5508 58.9442L67.9649 62.5514L66.086 60.4901L69.6719 56.8829Z" fill="#BB1111"/>
</svg>
